<svg xmlns="http://www.w3.org/2000/svg" width="820" height="520" style="background:#f8f5f0;font-family:sans-serif">
  <text x="410" y="28" text-anchor="middle" font-size="16" font-weight="bold" fill="#333">Kalnik — kontrolne točke</text>
  <line x1="574.1" y1="421.8" x2="569.7" y2="310.4" stroke="#7a9cbf" stroke-width="2" stroke-opacity="0.8"/>
  <line x1="569.7" y1="310.4" x2="671.5" y2="278.7" stroke="#7a9cbf" stroke-width="2" stroke-opacity="0.8"/>
  <line x1="569.7" y1="310.4" x2="551.2" y2="282.1" stroke="#7a9cbf" stroke-width="2" stroke-opacity="0.8"/>
  <line x1="569.7" y1="310.4" x2="400.8" y2="252.5" stroke="#7a9cbf" stroke-width="2" stroke-opacity="0.8"/>
  <line x1="569.7" y1="310.4" x2="441.7" y2="317.8" stroke="#7a9cbf" stroke-width="2" stroke-opacity="0.8"/>
  <line x1="671.5" y1="278.7" x2="564.1" y2="233.4" stroke="#7a9cbf" stroke-width="2" stroke-opacity="0.8"/>
  <line x1="671.5" y1="278.7" x2="400.8" y2="252.5" stroke="#7a9cbf" stroke-width="2" stroke-opacity="0.8"/>
  <line x1="564.1" y1="233.4" x2="551.2" y2="282.1" stroke="#7a9cbf" stroke-width="2" stroke-opacity="0.8"/>
  <line x1="551.2" y1="282.1" x2="400.8" y2="252.5" stroke="#7a9cbf" stroke-width="2" stroke-opacity="0.8"/>
  <line x1="551.2" y1="282.1" x2="441.7" y2="317.8" stroke="#7a9cbf" stroke-width="2" stroke-opacity="0.8"/>
  <line x1="400.8" y1="252.5" x2="148.5" y2="336.3" stroke="#7a9cbf" stroke-width="2" stroke-opacity="0.8"/>
  <line x1="400.8" y1="252.5" x2="441.7" y2="317.8" stroke="#7a9cbf" stroke-width="2" stroke-opacity="0.8"/>
  <line x1="148.5" y1="336.3" x2="344.1" y2="336.3" stroke="#7a9cbf" stroke-width="2" stroke-opacity="0.8"/>
  <line x1="344.1" y1="336.3" x2="441.7" y2="317.8" stroke="#7a9cbf" stroke-width="2" stroke-opacity="0.8"/>
  <circle cx="574.1" cy="421.8" r="7" fill="#e05c2a" stroke="white" stroke-width="1.5"/>
  <circle cx="569.7" cy="310.4" r="6" fill="#2a6ee0" stroke="white" stroke-width="1.5"/>
  <circle cx="671.5" cy="278.7" r="6" fill="#2a6ee0" stroke="white" stroke-width="1.5"/>
  <circle cx="564.1" cy="233.4" r="6" fill="#2a6ee0" stroke="white" stroke-width="1.5"/>
  <circle cx="551.2" cy="282.1" r="6" fill="#2a6ee0" stroke="white" stroke-width="1.5"/>
  <circle cx="400.8" cy="252.5" r="6" fill="#2a6ee0" stroke="white" stroke-width="1.5"/>
  <circle cx="148.5" cy="336.3" r="6" fill="#2a6ee0" stroke="white" stroke-width="1.5"/>
  <circle cx="344.1" cy="336.3" r="6" fill="#2a6ee0" stroke="white" stroke-width="1.5"/>
  <circle cx="441.7" cy="317.8" r="6" fill="#2a6ee0" stroke="white" stroke-width="1.5"/>
  <text x="574.1" y="409.8" text-anchor="middle" font-size="11" font-weight="bold" fill="#222">KT 1</text>
  <text x="583.7" y="315.4" text-anchor="middle" font-size="11" font-weight="bold" fill="#222">KT DJZA</text>
  <text x="685.5" y="282.7" text-anchor="middle" font-size="11" font-weight="bold" fill="#222">KT DIA</text>
  <text x="564.1" y="221.4" text-anchor="middle" font-size="11" font-weight="bold" fill="#222">KT DSZA</text>
  <text x="535.2" y="286.1" text-anchor="middle" font-size="11" font-weight="bold" fill="#222">KT DZA</text>
  <text x="400.8" y="240.5" text-anchor="middle" font-size="11" font-weight="bold" fill="#222">KT LSIA</text>
  <text x="148.5" y="324.3" text-anchor="middle" font-size="11" font-weight="bold" fill="#222">KT LZA</text>
  <text x="344.1" y="324.3" text-anchor="middle" font-size="11" font-weight="bold" fill="#222">KT LJIA</text>
  <text x="441.7" y="333.8" text-anchor="middle" font-size="11" font-weight="bold" fill="#222">KT LIA</text>
</svg>