<svg xmlns="http://www.w3.org/2000/svg" width="820" height="520" style="background:#f8f5f0;font-family:sans-serif">
  <text x="410" y="28" text-anchor="middle" font-size="16" font-weight="bold" fill="#333">Okić — kontrolne točke</text>
  <line x1="322.9" y1="406.2" x2="278.3" y2="374.2" stroke="#7a9cbf" stroke-width="2" stroke-opacity="0.8"/>
  <line x1="322.9" y1="406.2" x2="205.4" y2="309.6" stroke="#7a9cbf" stroke-width="2" stroke-opacity="0.8"/>
  <line x1="322.9" y1="406.2" x2="107.1" y2="278.5" stroke="#7a9cbf" stroke-width="2" stroke-opacity="0.8"/>
  <line x1="278.3" y1="374.2" x2="205.4" y2="309.6" stroke="#7a9cbf" stroke-width="2" stroke-opacity="0.8"/>
  <line x1="278.3" y1="374.2" x2="107.1" y2="278.5" stroke="#7a9cbf" stroke-width="2" stroke-opacity="0.8"/>
  <line x1="205.4" y1="309.6" x2="219.2" y2="203.5" stroke="#7a9cbf" stroke-width="2" stroke-opacity="0.8"/>
  <line x1="205.4" y1="309.6" x2="208.8" y2="113.8" stroke="#7a9cbf" stroke-width="2" stroke-opacity="0.8"/>
  <line x1="107.1" y1="278.5" x2="219.2" y2="203.5" stroke="#7a9cbf" stroke-width="2" stroke-opacity="0.8"/>
  <line x1="107.1" y1="278.5" x2="299.3" y2="157.7" stroke="#7a9cbf" stroke-width="2" stroke-opacity="0.8"/>
  <line x1="219.2" y1="203.5" x2="208.8" y2="113.8" stroke="#7a9cbf" stroke-width="2" stroke-opacity="0.8"/>
  <line x1="219.2" y1="203.5" x2="299.3" y2="157.7" stroke="#7a9cbf" stroke-width="2" stroke-opacity="0.8"/>
  <line x1="208.8" y1="113.8" x2="354.4" y2="158.9" stroke="#7a9cbf" stroke-width="2" stroke-opacity="0.8"/>
  <line x1="299.3" y1="157.7" x2="322.1" y2="282.2" stroke="#7a9cbf" stroke-width="2" stroke-opacity="0.8"/>
  <line x1="354.4" y1="158.9" x2="322.9" y2="406.2" stroke="#7a9cbf" stroke-width="2" stroke-opacity="0.8"/>
  <line x1="322.1" y1="282.2" x2="322.9" y2="406.2" stroke="#7a9cbf" stroke-width="2" stroke-opacity="0.8"/>
  <circle cx="322.9" cy="406.2" r="7" fill="#e05c2a" stroke="white" stroke-width="1.5"/>
  <circle cx="278.3" cy="374.2" r="6" fill="#2a6ee0" stroke="white" stroke-width="1.5"/>
  <circle cx="205.4" cy="309.6" r="6" fill="#2a6ee0" stroke="white" stroke-width="1.5"/>
  <circle cx="107.1" cy="278.5" r="6" fill="#2a6ee0" stroke="white" stroke-width="1.5"/>
  <circle cx="219.2" cy="203.5" r="6" fill="#2a6ee0" stroke="white" stroke-width="1.5"/>
  <circle cx="208.8" cy="113.8" r="6" fill="#2a6ee0" stroke="white" stroke-width="1.5"/>
  <circle cx="299.3" cy="157.7" r="6" fill="#2a6ee0" stroke="white" stroke-width="1.5"/>
  <circle cx="354.4" cy="158.9" r="6" fill="#2a6ee0" stroke="white" stroke-width="1.5"/>
  <circle cx="322.1" cy="282.2" r="6" fill="#2a6ee0" stroke="white" stroke-width="1.5"/>
  <text x="336.9" y="411.2" text-anchor="middle" font-size="11" font-weight="bold" fill="#222">DOM</text>
  <text x="262.3" y="378.2" text-anchor="middle" font-size="11" font-weight="bold" fill="#222">KT JA</text>
  <text x="187.4" y="313.6" text-anchor="middle" font-size="11" font-weight="bold" fill="#222">KT JZA</text>
  <text x="107.1" y="266.5" text-anchor="middle" font-size="11" font-weight="bold" fill="#222">KT ZA</text>
  <text x="201.2" y="207.5" text-anchor="middle" font-size="11" font-weight="bold" fill="#222">KT SZA</text>
  <text x="208.8" y="101.8" text-anchor="middle" font-size="11" font-weight="bold" fill="#222">KT SA</text>
  <text x="313.3" y="161.7" text-anchor="middle" font-size="11" font-weight="bold" fill="#222">KT SIA</text>
  <text x="368.4" y="162.9" text-anchor="middle" font-size="11" font-weight="bold" fill="#222">KT SIB</text>
  <text x="336.1" y="286.2" text-anchor="middle" font-size="11" font-weight="bold" fill="#222">KT JIA</text>
</svg>